<mxfile host="app.diagrams.net" agent="Mozilla/5.0 (Windows NT 10.0; Win64; x64) AppleWebKit/537.36 (KHTML, like Gecko) Chrome/137.0.0.0 Safari/537.36" version="27.1.3">
  <diagram name="Page-1" id="khZm1yznU_Jb0zRZG1mJ">
    <mxGraphModel dx="1426" dy="751" grid="1" gridSize="10" guides="1" tooltips="1" connect="1" arrows="1" fold="1" page="1" pageScale="1" pageWidth="827" pageHeight="1169" math="0" shadow="0">
      <root>
        <mxCell id="0" />
        <mxCell id="1" parent="0" />
        <mxCell id="KrBTROl6qVY0DUBUHca1-3" value="" style="edgeStyle=orthogonalEdgeStyle;rounded=0;orthogonalLoop=1;jettySize=auto;html=1;" edge="1" parent="1" source="KrBTROl6qVY0DUBUHca1-1" target="KrBTROl6qVY0DUBUHca1-2">
          <mxGeometry relative="1" as="geometry" />
        </mxCell>
        <mxCell id="KrBTROl6qVY0DUBUHca1-1" value="User frontend service" style="rounded=0;whiteSpace=wrap;html=1;" vertex="1" parent="1">
          <mxGeometry x="90" y="150" width="100" height="70" as="geometry" />
        </mxCell>
        <mxCell id="KrBTROl6qVY0DUBUHca1-8" style="edgeStyle=orthogonalEdgeStyle;rounded=0;orthogonalLoop=1;jettySize=auto;html=1;exitX=1;exitY=0.5;exitDx=0;exitDy=0;" edge="1" parent="1" source="KrBTROl6qVY0DUBUHca1-2" target="KrBTROl6qVY0DUBUHca1-4">
          <mxGeometry relative="1" as="geometry" />
        </mxCell>
        <mxCell id="KrBTROl6qVY0DUBUHca1-2" value="Gateway/Load Balancer" style="rounded=0;whiteSpace=wrap;html=1;" vertex="1" parent="1">
          <mxGeometry x="270" y="150" width="100" height="70" as="geometry" />
        </mxCell>
        <mxCell id="KrBTROl6qVY0DUBUHca1-9" value="GET /search" style="edgeStyle=orthogonalEdgeStyle;rounded=0;orthogonalLoop=1;jettySize=auto;html=1;exitX=0.25;exitY=1;exitDx=0;exitDy=0;" edge="1" parent="1" source="KrBTROl6qVY0DUBUHca1-4" target="KrBTROl6qVY0DUBUHca1-5">
          <mxGeometry relative="1" as="geometry" />
        </mxCell>
        <mxCell id="KrBTROl6qVY0DUBUHca1-10" value="POST /order" style="edgeStyle=orthogonalEdgeStyle;rounded=0;orthogonalLoop=1;jettySize=auto;html=1;exitX=0.75;exitY=1;exitDx=0;exitDy=0;" edge="1" parent="1" source="KrBTROl6qVY0DUBUHca1-4" target="KrBTROl6qVY0DUBUHca1-7">
          <mxGeometry relative="1" as="geometry" />
        </mxCell>
        <mxCell id="KrBTROl6qVY0DUBUHca1-4" value="" style="shape=image;html=1;verticalAlign=top;verticalLabelPosition=bottom;labelBackgroundColor=#ffffff;imageAspect=0;aspect=fixed;image=https://cdn3.iconfinder.com/data/icons/brands-pack/240/graphql-128.png" vertex="1" parent="1">
          <mxGeometry x="450" y="136" width="98" height="98" as="geometry" />
        </mxCell>
        <mxCell id="KrBTROl6qVY0DUBUHca1-16" style="edgeStyle=orthogonalEdgeStyle;rounded=0;orthogonalLoop=1;jettySize=auto;html=1;exitX=0.5;exitY=1;exitDx=0;exitDy=0;" edge="1" parent="1" source="KrBTROl6qVY0DUBUHca1-5" target="KrBTROl6qVY0DUBUHca1-12">
          <mxGeometry relative="1" as="geometry" />
        </mxCell>
        <mxCell id="KrBTROl6qVY0DUBUHca1-5" value="Searching Service" style="rounded=0;whiteSpace=wrap;html=1;" vertex="1" parent="1">
          <mxGeometry x="190" y="310" width="90" height="80" as="geometry" />
        </mxCell>
        <mxCell id="KrBTROl6qVY0DUBUHca1-7" value="Ordering service" style="rounded=0;whiteSpace=wrap;html=1;" vertex="1" parent="1">
          <mxGeometry x="580" y="310" width="90" height="80" as="geometry" />
        </mxCell>
        <mxCell id="KrBTROl6qVY0DUBUHca1-15" value="" style="strokeWidth=2;html=1;shape=mxgraph.flowchart.database;whiteSpace=wrap;" vertex="1" parent="1">
          <mxGeometry x="130" y="485" width="80" height="100" as="geometry" />
        </mxCell>
        <mxCell id="KrBTROl6qVY0DUBUHca1-14" value="" style="strokeWidth=2;html=1;shape=mxgraph.flowchart.database;whiteSpace=wrap;" vertex="1" parent="1">
          <mxGeometry x="110" y="485" width="80" height="100" as="geometry" />
        </mxCell>
        <mxCell id="KrBTROl6qVY0DUBUHca1-12" value="Inventory DB" style="strokeWidth=2;html=1;shape=mxgraph.flowchart.database;whiteSpace=wrap;" vertex="1" parent="1">
          <mxGeometry x="90" y="485" width="80" height="100" as="geometry" />
        </mxCell>
        <mxCell id="KrBTROl6qVY0DUBUHca1-20" style="edgeStyle=orthogonalEdgeStyle;rounded=0;orthogonalLoop=1;jettySize=auto;html=1;exitX=0.5;exitY=1;exitDx=0;exitDy=0;exitPerimeter=0;" edge="1" parent="1" source="KrBTROl6qVY0DUBUHca1-17" target="KrBTROl6qVY0DUBUHca1-19">
          <mxGeometry relative="1" as="geometry" />
        </mxCell>
        <mxCell id="KrBTROl6qVY0DUBUHca1-17" value="Order Job queue" style="verticalLabelPosition=middle;html=1;verticalAlign=middle;align=left;strokeColor=none;fillColor=#00BEF2;shape=mxgraph.azure.queue_generic;pointerEvents=1;labelPosition=right;" vertex="1" parent="1">
          <mxGeometry x="548" y="480" width="142" height="62.5" as="geometry" />
        </mxCell>
        <mxCell id="KrBTROl6qVY0DUBUHca1-18" style="edgeStyle=orthogonalEdgeStyle;rounded=0;orthogonalLoop=1;jettySize=auto;html=1;exitX=0.5;exitY=1;exitDx=0;exitDy=0;entryX=0.5;entryY=0;entryDx=0;entryDy=0;entryPerimeter=0;" edge="1" parent="1" source="KrBTROl6qVY0DUBUHca1-7" target="KrBTROl6qVY0DUBUHca1-17">
          <mxGeometry relative="1" as="geometry" />
        </mxCell>
        <mxCell id="KrBTROl6qVY0DUBUHca1-21" style="edgeStyle=orthogonalEdgeStyle;rounded=0;orthogonalLoop=1;jettySize=auto;html=1;exitX=0;exitY=0.75;exitDx=0;exitDy=0;" edge="1" parent="1" source="KrBTROl6qVY0DUBUHca1-19" target="KrBTROl6qVY0DUBUHca1-12">
          <mxGeometry relative="1" as="geometry" />
        </mxCell>
        <mxCell id="KrBTROl6qVY0DUBUHca1-22" value="Returns 200 if order placed" style="edgeStyle=orthogonalEdgeStyle;rounded=0;orthogonalLoop=1;jettySize=auto;html=1;exitX=0;exitY=0.25;exitDx=0;exitDy=0;entryX=0;entryY=0.5;entryDx=0;entryDy=0;" edge="1" parent="1" source="KrBTROl6qVY0DUBUHca1-19" target="KrBTROl6qVY0DUBUHca1-7">
          <mxGeometry relative="1" as="geometry">
            <Array as="points">
              <mxPoint x="500" y="615" />
              <mxPoint x="500" y="350" />
            </Array>
          </mxGeometry>
        </mxCell>
        <mxCell id="KrBTROl6qVY0DUBUHca1-19" value="Order job processor" style="rounded=0;whiteSpace=wrap;html=1;" vertex="1" parent="1">
          <mxGeometry x="550" y="600" width="120" height="60" as="geometry" />
        </mxCell>
        <mxCell id="KrBTROl6qVY0DUBUHca1-23" value="Order in progress cache" style="image;sketch=0;aspect=fixed;html=1;points=[];align=center;fontSize=12;image=img/lib/mscae/Cache_Redis_Product.svg;" vertex="1" parent="1">
          <mxGeometry x="310" y="440" width="80" height="67.2" as="geometry" />
        </mxCell>
        <mxCell id="KrBTROl6qVY0DUBUHca1-24" style="edgeStyle=orthogonalEdgeStyle;rounded=0;orthogonalLoop=1;jettySize=auto;html=1;exitX=0;exitY=0.5;exitDx=0;exitDy=0;entryX=1;entryY=0.744;entryDx=0;entryDy=0;entryPerimeter=0;" edge="1" parent="1" source="KrBTROl6qVY0DUBUHca1-19" target="KrBTROl6qVY0DUBUHca1-23">
          <mxGeometry relative="1" as="geometry" />
        </mxCell>
        <mxCell id="KrBTROl6qVY0DUBUHca1-25" style="edgeStyle=orthogonalEdgeStyle;rounded=0;orthogonalLoop=1;jettySize=auto;html=1;exitX=1;exitY=0.75;exitDx=0;exitDy=0;entryX=0.475;entryY=0.03;entryDx=0;entryDy=0;entryPerimeter=0;" edge="1" parent="1" source="KrBTROl6qVY0DUBUHca1-5" target="KrBTROl6qVY0DUBUHca1-23">
          <mxGeometry relative="1" as="geometry" />
        </mxCell>
      </root>
    </mxGraphModel>
  </diagram>
</mxfile>
